Patient4_TMGait_0pt6_01_left_46_EMG.mot
version=1
nRows=27
nColumns=33
inDegrees=no
endheader
time	1LAddLong	2LGlutMax	3LGlutMed	4LIliopsoas	5LSemiMemb	6LBicFemLong	7LRecFem	8LVastMed	9LVastLat	10LGasMed	11LTibAnt	12lTibPost	13LPeroneusLong	14LSol	15LExtDigLong	16LFlexDigLong	17RAddLong	18RGlutMax	19RGlutMed	20RIliopsoas	21RSemiMemb	22RBicFemLong	23RRecFem	24RVastMed	25RVastLat	26RGasMed	27RTibAnt	28RTibPost	29RPeroneusLong	30RSol	31RExtDigLong	32RFlexDigLong
56	0.019073	-0.21057	-0.037079	0.016022	0.001984	-0.035553	-0.11581	0.003357	0.1651	-0.032196	0.002899	0.011749	0.079041	-0.25559	-0.064545	0.03891	0.016022	-0.11871	0.5481	0.23575	-0.023499	0.051727	0.022736	-0.22797	0.30014	-0.029907	-0.11078	0.011139	0.45685	0.24811	-0.000916	-0.010071
56.001	0.027618	-0.20325	-0.049744	0.021973	0.028839	-0.028229	-0.11688	0.010376	0.33585	-0.027618	0.002136	0.008698	0.069275	-0.14465	-0.00412	-0.17364	0.009918	-0.09964	0.46539	0.24262	-0.007324	0.016327	-0.20416	-0.17502	0.26398	0.14603	-0.007172	0.050659	-0.4245	-0.005188	-0.002136	-0.031433
56.002	0.025024	-0.22888	-0.045013	0.019989	0.020447	-0.040741	-0.10376	0.009613	0.5574	-0.014496	-0.007629	0.004425	0.074463	0.046692	0.038147	-0.057831	0.003815	-0.029144	0.1944	0.028839	-0.000916	-0.11688	-0.25787	-0.10757	0.20432	0.25559	0.025482	-0.022278	-0.25681	-0.26871	-0.000916	-0.020905
56.003	0.009918	-0.29037	-0.060425	0.023346	0.014191	-0.024567	-0.10162	-0.002441	0.85754	-0.007629	0.009918	0.009613	0.077362	0.1059	0.14526	0.14908	0.020142	-0.08255	0.18036	-0.037994	-0.01297	-0.18707	0.17975	0.12009	-0.2565	0.14069	0.12573	-0.072021	0.20615	-0.21103	-0.003357	-0.016327
56.004	0.006866	-0.32257	-0.044708	0.006866	0.013123	-0.025787	-0.071259	0.016327	1.1859	-0.003815	0.008698	0.016022	0.081329	0.12558	0.15427	0.078125	0.028839	-0.15152	0.34653	-0.007324	-0.078583	-0.16678	0.2449	0.11169	-0.51956	-0.027466	0.001984	-0.056763	0.44907	0.010376	-0.001526	-0.009003
56.005	0.013885	-0.34973	-0.056763	0.009766	0.008392	-0.034943	-0.006409	0.001373	1.425	-0.008545	-0.000763	0.003204	0.078888	0.17563	0.069885	0.033722	0.026093	-0.17273	0.45563	0.022888	-0.037231	-0.10742	0.13428	0.15213	-0.67673	-0.093079	-0.20416	-0.046997	0.59219	-0.040436	-0.003052	-0.007477
56.006	0.007935	-0.36133	-0.071411	0.00351	0.010986	-0.03891	0.032959	0.032959	1.5367	-0.016327	-0.020599	-0.001221	0.098114	0.16281	0.039368	0.045013	0.01358	-0.12787	0.36423	0.053406	-0.088043	-0.034485	0.045624	0.070801	-0.32822	0.020142	-0.13931	-0.007782	-0.049744	-0.017548	-0.002136	-0.005798
56.007	0.005493	-0.4097	-0.071411	-0.019379	0.003662	-0.037994	0.093689	0.017242	1.5407	-0.018311	0.049133	0.005798	0.087891	0.021362	0.019226	0.016327	-0.006561	-0.14862	0.43671	0.071564	-0.043488	0.010681	-0.067444	0.014801	-0.14374	-0.005646	0.053101	-0.031281	-0.45395	0.073547	-0.004425	-0.009613
56.008	-0.007782	-0.37811	-0.053253	-0.001526	0.011139	-0.049438	0.13702	0.024567	1.4481	-0.001831	0.15671	0.006104	0.069733	0.016479	0.011749	0.010529	0.004425	-0.10483	0.47119	0.083008	-0.11108	0.082397	-0.20081	0.007629	-0.14099	-0.10986	0.22018	-0.039825	-0.36209	-0.22995	-0.000458	-0.016174
56.009	-0.003662	-0.37308	-0.067749	-0.005646	0.001221	-0.044403	0.15213	0.061035	1.2408	-0.003815	0.23789	0.002899	0.053253	-0.089264	0.04837	0.016022	0.029907	-0.12665	0.45181	0.022583	-0.056305	0.18478	-0.19196	-0.022125	-0.061493	-0.11444	0.10681	-0.005646	0.3537	-0.69839	-0.003052	-0.011597
56.01	-0.00061	-0.36819	-0.059814	-0.008698	0.006714	-0.052948	0.15427	0.023041	1.0449	-0.034485	0.17029	0.000916	0.047455	-0.15564	0.2594	0.003815	0.015106	-0.11231	0.54474	0.010834	-0.027161	-0.088196	-0.23224	-0.029907	0.10315	-0.061798	0.079193	-0.014648	1.2544	-0.94467	-0.001678	-0.00946
56.011	0.008545	-0.41367	-0.059509	0.001831	0.007782	-0.07431	0.17578	0.00351	0.80307	-0.033112	-0.087128	-0.004425	0.094604	-0.13031	0.63477	0.040283	-0.010376	-0.15121	0.34546	-0.015106	-0.13168	-0.15976	-0.001373	-0.053253	0.07019	-0.071716	0.1387	0.017242	0.82504	-0.53833	-0.002441	-0.02594
56.012	0.00824	-0.40787	-0.045013	-0.005035	-0.000153	-0.059357	0.18265	-0.003662	0.52826	-0.010834	-0.14938	-0.007172	0.11963	-0.086823	0.14282	-0.001831	-0.02594	-0.13092	0.076141	-0.024109	0.029144	-0.2182	-0.008698	-0.053406	0.044708	-0.012207	0.091858	-0.020142	-0.19058	0.31555	-0.001678	-0.00885
56.013	0.014496	-0.35889	-0.079956	0.005798	0.005798	-0.060425	0.15091	0.01709	0.18448	-0.014954	-0.1561	-0.005493	0.15839	-0.033722	-0.41641	-0.016785	-0.015259	-0.084229	-0.054016	-0.075378	0.057526	-0.33264	0.034485	-0.056763	0.042572	0.041351	0.02594	-0.26138	-0.26916	0.42236	0.000305	-0.014038
56.014	0.016632	-0.32974	-0.15381	0.00473	0.007477	-0.054932	0.18387	0.015411	-0.29831	-0.011139	-0.14847	-0.011902	0.13138	0.025177	-0.15076	-0.041962	-0.013123	-0.11581	0.45212	-0.052795	0.13123	-0.32715	0.047913	-0.048828	0.050964	0.063629	-0.14221	-0.33844	0.10513	0.44769	-0.001678	-0.015869
56.015	0.020142	-0.31174	-0.19684	0.022583	0.018311	-0.064392	0.16388	0.016327	-0.91492	-0.006714	-0.093231	-0.006714	0.096893	0.11017	-0.29587	0.016632	0.020294	-0.10193	0.34012	-0.06485	-0.002899	-0.22171	0.062103	-0.033722	0.026398	-0.010834	-0.090485	0.089722	-0.29251	-0.38101	-0.002136	-0.024261
56.016	0.022278	-0.26291	-0.14297	0.039978	0.012817	-0.054169	0.16388	0.004578	-1.5672	-0.0177	-0.047302	-0.008392	0.10696	0.12589	-0.42602	0.21118	0.040131	-0.08255	0.080414	-0.10071	-0.33875	-0.18082	0.12344	-0.095978	0.026245	-0.13458	-0.061188	-0.059052	-0.62485	-0.74463	0.000458	-0.019226
56.017	0.018158	-0.26291	0.041351	0.018616	0.008087	-0.062256	0.16113	0.000763	-1.7899	-0.011292	-0.018616	-0.008392	0.090332	0.036621	-0.25742	-0.048523	-0.002899	-0.11063	0.38467	-0.002899	-0.49561	0.073547	0.09613	-0.005341	0.10056	-0.054779	0.11368	0.29404	-0.73166	-0.12436	-0.001984	-0.013275
56.018	0.018616	-0.20523	0.096436	-0.007019	-0.029297	-0.063934	0.14999	0.015106	-1.6039	-0.038452	-0.1004	-0.004425	0.11612	-0.043335	-0.112	-0.041656	-0.030823	-0.16037	0.20706	0.044708	-0.04715	0.41168	0.08728	0.029755	0.10651	0.055542	0.10162	0.29053	-0.083618	1.3484	-0.009766	-0.023041
56.019	0.017548	-0.11765	0.18662	-0.005035	-0.047913	-0.10712	0.1651	0.005341	-1.398	-0.085754	-0.17654	-0.009003	0.11154	-0.005188	-0.075989	0.001373	-0.0383	-0.16373	-0.21118	0.00351	0.48538	0.28107	0.007935	-0.01358	0.052185	0.067596	0.22644	0.059357	0.59784	1.0992	-0.000458	-0.018463
56.02	0.013733	-0.083771	0.16785	0.00473	-0.005798	-0.10452	0.12817	0.008087	-1.2285	-0.093536	-0.016022	-0.007477	0.13412	-0.001831	0.05249	-0.008392	-0.046997	-0.1088	-0.27359	-0.032196	0.47409	0.12741	-0.01297	-0.019073	-0.024109	0.063629	0.34714	-0.090485	0.37445	0.37384	-0.000305	-0.019073
56.021	0.018463	0.000305	0.1088	0.001373	0.012207	-0.10117	0.13107	0.018463	-0.99915	-0.09079	0.074615	-0.001984	0.12512	0.018311	0.0383	-0.001068	-0.030975	-0.074768	-0.05127	-0.027466	0.37811	0.042725	0.072021	-0.004272	-0.089264	0.059204	0.18005	0.056152	0.04425	-0.001373	-0.006561	-0.010529
56.022	0.019226	0.08194	0.063019	0.00473	0.027313	-0.095978	0.112	0.01297	-0.8078	-0.084991	0.22842	-0.007629	0.12528	-0.001678	-0.046234	-0.023041	-0.019836	-0.14999	-0.20309	0.031586	0.2121	0.081177	-0.015717	0.004425	-0.028687	0.042877	-0.2803	0.13336	0.13229	0.27603	-0.003052	-0.006104
56.023	-0.019073	0.2272	0.035248	0.002441	0.034485	-0.11231	0.091095	0.003662	-0.63889	-0.059967	0.16281	-0.006409	0.0914	-0.03891	-0.025787	-0.028992	-0.010071	-0.16449	0.15137	0.052795	0.112	-0.094757	0.12161	-0.008392	-0.092468	0.018616	-0.16769	0.19791	0.017853	0.17288	-0.002289	0.008545
56.024	0.011139	0.26215	0.023346	0	0.012817	-0.095825	0.084381	0.010376	-0.48035	-0.026398	-0.016937	-0.00351	0.046387	-0.08606	0.31342	-0.021362	0.003357	-0.11826	0.29511	0.058594	0.052185	-0.1149	0.33249	-0.083313	-0.13428	0.032806	-0.60852	0.066223	0.24902	0.24933	0.001221	0.00351
56.025	0.024109	0.33951	0.002136	-0.005341	-0.018311	-0.079498	0.045319	0.001221	-0.35675	-0.007019	-0.093842	-0.002289	0.046692	-0.20874	0.17944	-0.012054	-0.003815	-0.12863	-0.1564	0.001984	0.0383	-0.089111	0.29984	-0.044708	-0.026245	0.060272	-0.80749	0.03418	0.15961	-0.16449	0.000305	-0.001221
56.026	0.013275	0.37857	-0.016937	0.010529	0.019684	-0.073242	0.024414	0.006714	-0.23438	-0.002136	-0.052643	-0.004272	0.11322	-0.33661	0.15472	0.004425	-0.002441	-0.17441	-0.14114	0.01709	0.032806	-0.067749	0.41382	-0.13382	-0.016327	0.037842	-1.0242	0.019989	-0.14893	-0.28366	-0.001526	-0.001526
